<mxfile host="app.diagrams.net" agent="Mozilla/5.0 (Windows NT 10.0; Win64; x64) AppleWebKit/537.36 (KHTML, like Gecko) Chrome/139.0.0.0 Safari/537.36" version="28.2.5">
  <diagram id="gga1BcaOc5JhbXKOKjvL" name="cv1_uml">
    <mxGraphModel dx="947" dy="479" grid="1" gridSize="10" guides="1" tooltips="1" connect="1" arrows="1" fold="1" page="1" pageScale="1" pageWidth="850" pageHeight="1100" math="0" shadow="0">
      <root>
        <mxCell id="0" />
        <mxCell id="1" parent="0" />
        <mxCell id="A-OM3MaNTe0-_09uI9it-48" style="edgeStyle=orthogonalEdgeStyle;rounded=0;orthogonalLoop=1;jettySize=auto;html=1;entryX=0.5;entryY=0;entryDx=0;entryDy=0;endArrow=diamondThin;endFill=0;" edge="1" parent="1" target="A-OM3MaNTe0-_09uI9it-47">
          <mxGeometry relative="1" as="geometry">
            <mxPoint x="630" y="70" as="sourcePoint" />
            <Array as="points">
              <mxPoint x="630" y="101" />
              <mxPoint x="635" y="101" />
            </Array>
          </mxGeometry>
        </mxCell>
        <mxCell id="A-OM3MaNTe0-_09uI9it-24" value="Client" style="html=1;whiteSpace=wrap;" vertex="1" parent="1">
          <mxGeometry x="690" y="50" width="110" height="50" as="geometry" />
        </mxCell>
        <mxCell id="A-OM3MaNTe0-_09uI9it-37" style="edgeStyle=orthogonalEdgeStyle;rounded=0;orthogonalLoop=1;jettySize=auto;html=1;entryX=0;entryY=0.5;entryDx=0;entryDy=0;fillColor=none;endArrow=none;endFill=0;" edge="1" parent="1" source="A-OM3MaNTe0-_09uI9it-25" target="A-OM3MaNTe0-_09uI9it-26">
          <mxGeometry relative="1" as="geometry" />
        </mxCell>
        <mxCell id="A-OM3MaNTe0-_09uI9it-25" value="Employee" style="html=1;whiteSpace=wrap;" vertex="1" parent="1">
          <mxGeometry x="50" y="290" width="110" height="50" as="geometry" />
        </mxCell>
        <mxCell id="A-OM3MaNTe0-_09uI9it-26" value="Department of Interior" style="html=1;whiteSpace=wrap;" vertex="1" parent="1">
          <mxGeometry x="270" y="290" width="110" height="50" as="geometry" />
        </mxCell>
        <mxCell id="A-OM3MaNTe0-_09uI9it-27" value="Loan" style="html=1;whiteSpace=wrap;" vertex="1" parent="1">
          <mxGeometry x="450" y="50" width="110" height="50" as="geometry" />
        </mxCell>
        <mxCell id="A-OM3MaNTe0-_09uI9it-28" value="Bank&#39;s Client System" style="html=1;whiteSpace=wrap;" vertex="1" parent="1">
          <mxGeometry x="470" y="380" width="110" height="50" as="geometry" />
        </mxCell>
        <mxCell id="A-OM3MaNTe0-_09uI9it-29" value="Social Insurance Company" style="html=1;whiteSpace=wrap;" vertex="1" parent="1">
          <mxGeometry x="530" y="290" width="110" height="50" as="geometry" />
        </mxCell>
        <mxCell id="A-OM3MaNTe0-_09uI9it-41" style="edgeStyle=orthogonalEdgeStyle;rounded=0;orthogonalLoop=1;jettySize=auto;html=1;entryX=0;entryY=0.5;entryDx=0;entryDy=0;endArrow=diamond;endFill=0;" edge="1" parent="1" source="A-OM3MaNTe0-_09uI9it-30" target="A-OM3MaNTe0-_09uI9it-27">
          <mxGeometry relative="1" as="geometry" />
        </mxCell>
        <mxCell id="A-OM3MaNTe0-_09uI9it-30" value="Income" style="html=1;whiteSpace=wrap;" vertex="1" parent="1">
          <mxGeometry x="300" y="130" width="110" height="50" as="geometry" />
        </mxCell>
        <mxCell id="A-OM3MaNTe0-_09uI9it-42" style="edgeStyle=orthogonalEdgeStyle;rounded=0;orthogonalLoop=1;jettySize=auto;html=1;endArrow=diamond;endFill=0;" edge="1" parent="1" source="A-OM3MaNTe0-_09uI9it-31">
          <mxGeometry relative="1" as="geometry">
            <mxPoint x="450" y="75" as="targetPoint" />
          </mxGeometry>
        </mxCell>
        <mxCell id="A-OM3MaNTe0-_09uI9it-31" value="Liabilities" style="html=1;whiteSpace=wrap;" vertex="1" parent="1">
          <mxGeometry x="300" y="50" width="110" height="50" as="geometry" />
        </mxCell>
        <mxCell id="A-OM3MaNTe0-_09uI9it-32" value="Black List" style="html=1;whiteSpace=wrap;" vertex="1" parent="1">
          <mxGeometry x="600" y="200" width="110" height="50" as="geometry" />
        </mxCell>
        <mxCell id="A-OM3MaNTe0-_09uI9it-33" value="SRBI" style="html=1;whiteSpace=wrap;" vertex="1" parent="1">
          <mxGeometry x="660" y="390" width="110" height="50" as="geometry" />
        </mxCell>
        <mxCell id="A-OM3MaNTe0-_09uI9it-34" value="Supervisor" style="html=1;whiteSpace=wrap;" vertex="1" parent="1">
          <mxGeometry x="50" y="360" width="110" height="50" as="geometry" />
        </mxCell>
        <mxCell id="A-OM3MaNTe0-_09uI9it-35" value="Bank&#39;s Main System" style="html=1;whiteSpace=wrap;" vertex="1" parent="1">
          <mxGeometry x="270" y="410" width="110" height="50" as="geometry" />
        </mxCell>
        <mxCell id="A-OM3MaNTe0-_09uI9it-44" value="" style="endArrow=none;html=1;endSize=12;startArrow=none;startSize=14;startFill=0;edgeStyle=orthogonalEdgeStyle;rounded=0;exitX=0;exitY=0.5;exitDx=0;exitDy=0;entryX=1;entryY=0.5;entryDx=0;entryDy=0;endFill=0;" edge="1" parent="1" source="A-OM3MaNTe0-_09uI9it-24" target="A-OM3MaNTe0-_09uI9it-27">
          <mxGeometry x="-0.0769" y="-15" relative="1" as="geometry">
            <mxPoint x="310" y="270" as="sourcePoint" />
            <mxPoint x="470" y="270" as="targetPoint" />
            <Array as="points">
              <mxPoint x="690" y="70" />
              <mxPoint x="560" y="70" />
            </Array>
            <mxPoint as="offset" />
          </mxGeometry>
        </mxCell>
        <mxCell id="A-OM3MaNTe0-_09uI9it-45" value="*" style="edgeLabel;resizable=0;html=1;align=left;verticalAlign=top;" connectable="0" vertex="1" parent="A-OM3MaNTe0-_09uI9it-44">
          <mxGeometry x="-1" relative="1" as="geometry">
            <mxPoint x="-10" y="-5" as="offset" />
          </mxGeometry>
        </mxCell>
        <mxCell id="A-OM3MaNTe0-_09uI9it-46" value="*" style="edgeLabel;resizable=0;html=1;align=right;verticalAlign=top;" connectable="0" vertex="1" parent="A-OM3MaNTe0-_09uI9it-44">
          <mxGeometry x="1" relative="1" as="geometry">
            <mxPoint x="10" y="-5" as="offset" />
          </mxGeometry>
        </mxCell>
        <mxCell id="A-OM3MaNTe0-_09uI9it-47" value="Role" style="html=1;whiteSpace=wrap;" vertex="1" parent="1">
          <mxGeometry x="580" y="130" width="110" height="50" as="geometry" />
        </mxCell>
      </root>
    </mxGraphModel>
  </diagram>
</mxfile>
